<svg id="visual" viewBox="0 0 3840 2160" width="3840" height="2160" xmlns="http://www.w3.org/2000/svg" xmlns:xlink="http://www.w3.org/1999/xlink" version="1.1"><rect x="0" y="0" width="3840" height="2160" fill="#001220"></rect><defs><linearGradient id="grad1_0" x1="43.8%" y1="100%" x2="100%" y2="0%"><stop offset="14.444444444444446%" stop-color="#001220" stop-opacity="1"></stop><stop offset="85.55555555555554%" stop-color="#001220" stop-opacity="1"></stop></linearGradient></defs><defs><linearGradient id="grad2_0" x1="0%" y1="100%" x2="56.3%" y2="0%"><stop offset="14.444444444444446%" stop-color="#001220" stop-opacity="1"></stop><stop offset="85.55555555555554%" stop-color="#001220" stop-opacity="1"></stop></linearGradient></defs><g transform="translate(3840, 2160)"><path d="M-1620 0C-1532.1 -147.8 -1444.2 -295.6 -1400.9 -455.2C-1357.7 -614.8 -1359.1 -786.2 -1295.2 -941C-1231.4 -1095.9 -1102.3 -1234.2 -952.2 -1310.6C-802.1 -1387 -631 -1401.5 -468.8 -1442.8C-306.6 -1484 -153.3 -1552 0 -1620L0 0Z" fill="#3cfab5"></path></g><g transform="translate(0, 0)"><path d="M1620 0C1608.2 176.9 1596.5 353.8 1523.6 495C1450.7 636.3 1316.7 741.8 1223.2 888.7C1129.8 1035.7 1077 1224.1 952.2 1310.6C827.5 1397.1 630.8 1381.6 460.1 1416.1C289.4 1450.7 144.7 1535.3 0 1620L0 0Z" fill="#3cfab5"></path></g></svg>