<svg id="visual" viewBox="0 0 3840 2160" width="3840" height="2160" xmlns="http://www.w3.org/2000/svg" xmlns:xlink="http://www.w3.org/1999/xlink" version="1.1"><rect x="0" y="0" width="3840" height="2160" fill="#001220"></rect><defs><linearGradient id="grad1_0" x1="43.8%" y1="0%" x2="100%" y2="100%"><stop offset="14.444444444444446%" stop-color="#001220" stop-opacity="1"></stop><stop offset="85.55555555555554%" stop-color="#001220" stop-opacity="1"></stop></linearGradient></defs><defs><linearGradient id="grad2_0" x1="0%" y1="0%" x2="56.3%" y2="100%"><stop offset="14.444444444444446%" stop-color="#001220" stop-opacity="1"></stop><stop offset="85.55555555555554%" stop-color="#001220" stop-opacity="1"></stop></linearGradient></defs><g transform="translate(3840, 0)"><path d="M0 1620C-161.8 1579.1 -323.7 1538.2 -485.2 1493.2C-646.7 1448.1 -807.8 1399 -952.2 1310.6C-1096.6 1222.3 -1224.2 1094.7 -1305.8 948.7C-1387.3 802.6 -1422.8 638 -1467.5 476.8C-1512.2 315.6 -1566.1 157.8 -1620 0L0 0Z" fill="#3cfab5"></path></g><g transform="translate(0, 2160)"><path d="M0 -1620C162.8 -1579.6 325.7 -1539.2 483.9 -1489.4C642.2 -1439.5 795.9 -1380 939.3 -1292.8C1082.7 -1205.6 1215.7 -1090.5 1310.6 -952.2C1405.5 -813.9 1462.2 -652.4 1507.4 -489.8C1552.6 -327.2 1586.3 -163.6 1620 0L0 0Z" fill="#3cfab5"></path></g></svg>